<?xml version="1.0" encoding="UTF-8"?>
<svg width="2512px" height="2512px" viewBox="0 0 2512 2512" version="1.1" xmlns="http://www.w3.org/2000/svg" xmlns:xlink="http://www.w3.org/1999/xlink">
    <title>Group</title>
    <g id="Page-1" stroke="none" stroke-width="1" fill="none" fill-rule="evenodd">
        <g id="Group" transform="translate(1.000000, 1.000000)" stroke="#000000">
            <circle id="Oval" stroke-width="1.0008" fill="#000000" cx="1258" cy="1255" r="1"></circle>
            <circle id="Oval" stroke-width="1.0008" cx="1257.5" cy="1254.5" r="9.5"></circle>
            <circle id="Oval" stroke-width="1.0008" cx="1258" cy="1255" r="19"></circle>
            <circle id="Oval" stroke-width="1.0008" cx="1258" cy="1255" r="29"></circle>
            <circle id="Oval" stroke-width="1.0008" cx="1258.5" cy="1255.5" r="38.5"></circle>
            <circle id="Oval" stroke-width="1.0008" cx="1258" cy="1255" r="48"></circle>
            <circle id="Oval" stroke-width="1.0008" cx="1257.5" cy="1254.5" r="57.5"></circle>
            <circle id="Oval" stroke-width="1.0008" cx="1258.5" cy="1255.5" r="67.5"></circle>
            <circle id="Oval" stroke-width="1.0008" cx="1258" cy="1255" r="77"></circle>
            <circle id="Oval" stroke-width="1.0008" cx="1257.5" cy="1254.5" r="86.5"></circle>
            <circle id="Oval" stroke-width="1.0008" cx="1258" cy="1255" r="96"></circle>
            <circle id="Oval" stroke-width="1.0008" cx="1258" cy="1255" r="106"></circle>
            <circle id="Oval" stroke-width="1.0008" cx="1258.5" cy="1255.5" r="115.5"></circle>
            <circle id="Oval" stroke-width="1.0008" cx="1258" cy="1255" r="125"></circle>
            <circle id="Oval" stroke-width="1.0008" cx="1257.5" cy="1254.5" r="134.5"></circle>
            <circle id="Oval" stroke-width="1.0008" cx="1258.5" cy="1255.5" r="144.5"></circle>
            <circle id="Oval" stroke-width="1.0008" cx="1258" cy="1255" r="154"></circle>
            <circle id="Oval" stroke-width="1.0008" cx="1257.5" cy="1254.5" r="163.5"></circle>
            <circle id="Oval" stroke-width="1.0008" cx="1258" cy="1255" r="173"></circle>
            <circle id="Oval" stroke-width="1.0008" cx="1258" cy="1255" r="183"></circle>
            <circle id="Oval" stroke-width="1.0008" cx="1258.5" cy="1255.5" r="192.5"></circle>
            <circle id="Oval" stroke-width="1.0008" cx="1258" cy="1255" r="202"></circle>
            <circle id="Oval" stroke-width="1.0008" cx="1257.5" cy="1254.5" r="211.5"></circle>
            <circle id="Oval" stroke-width="1.0008" cx="1258.5" cy="1255.5" r="221.5"></circle>
            <circle id="Oval" stroke-width="1.0008" cx="1258" cy="1255" r="231"></circle>
            <circle id="Oval" stroke-width="1.0008" cx="1257.5" cy="1254.5" r="240.5"></circle>
            <circle id="Oval" stroke-width="1.0008" cx="1258" cy="1255" r="250"></circle>
            <circle id="Oval" stroke-width="1.0008" cx="1258" cy="1255" r="260"></circle>
            <circle id="Oval" stroke-width="1.0008" cx="1258.5" cy="1255.5" r="269.5"></circle>
            <circle id="Oval" stroke-width="1.0008" cx="1258" cy="1255" r="279"></circle>
            <circle id="Oval" stroke-width="1.0008" cx="1257.5" cy="1254.5" r="288.5"></circle>
            <circle id="Oval" stroke-width="1.0008" cx="1258.5" cy="1255.5" r="298.5"></circle>
            <circle id="Oval" stroke-width="1.0008" cx="1258" cy="1255" r="308"></circle>
            <circle id="Oval" stroke-width="1.0008" cx="1257.5" cy="1254.5" r="317.5"></circle>
            <circle id="Oval" stroke-width="1.0008" cx="1258" cy="1255" r="327"></circle>
            <circle id="Oval" stroke-width="1.0008" cx="1258" cy="1255" r="337"></circle>
            <circle id="Oval" stroke-width="1.0008" cx="1258.5" cy="1255.5" r="346.5"></circle>
            <circle id="Oval" stroke-width="1.0008" cx="1258" cy="1255" r="356"></circle>
            <circle id="Oval" stroke-width="1.0008" cx="1257.5" cy="1254.5" r="365.5"></circle>
            <circle id="Oval" stroke-width="1.0008" cx="1258.5" cy="1255.5" r="375.5"></circle>
            <circle id="Oval" stroke-width="1.0008" cx="1258" cy="1255" r="385"></circle>
            <circle id="Oval" stroke-width="1.0008" cx="1257.5" cy="1254.5" r="394.5"></circle>
            <circle id="Oval" stroke-width="1.0008" cx="1258" cy="1255" r="404"></circle>
            <circle id="Oval" stroke-width="1.0008" cx="1258" cy="1255" r="414"></circle>
            <circle id="Oval" stroke-width="1.0008" cx="1258.5" cy="1255.5" r="423.5"></circle>
            <circle id="Oval" stroke-width="1.0008" cx="1258" cy="1255" r="433"></circle>
            <circle id="Oval" stroke-width="1.0008" cx="1257.5" cy="1254.5" r="442.5"></circle>
            <circle id="Oval" stroke-width="1.0008" cx="1258.5" cy="1255.5" r="452.5"></circle>
            <circle id="Oval" stroke-width="1.0008" cx="1258" cy="1255" r="462"></circle>
            <circle id="Oval" stroke-width="1.0008" cx="1257.5" cy="1254.5" r="471.5"></circle>
            <circle id="Oval" stroke-width="1.0008" cx="1258" cy="1255" r="481"></circle>
            <circle id="Oval" stroke-width="1.0008" cx="1258" cy="1255" r="491"></circle>
            <circle id="Oval" stroke-width="1.0008" cx="1258.5" cy="1255.5" r="500.5"></circle>
            <circle id="Oval" stroke-width="1.0008" cx="1258" cy="1255" r="510"></circle>
            <circle id="Oval" stroke-width="1.0008" cx="1257.5" cy="1254.5" r="519.5"></circle>
            <circle id="Oval" stroke-width="1.0008" cx="1258.5" cy="1255.5" r="529.5"></circle>
            <circle id="Oval" stroke-width="1.0008" cx="1258" cy="1255" r="539"></circle>
            <circle id="Oval" stroke-width="1.0008" cx="1257.5" cy="1254.5" r="548.5"></circle>
            <circle id="Oval" stroke-width="1.0008" cx="1258" cy="1255" r="558"></circle>
            <circle id="Oval" stroke-width="1.0008" cx="1258" cy="1255" r="568"></circle>
            <circle id="Oval" stroke-width="1.0008" cx="1258.5" cy="1255.5" r="577.5"></circle>
            <circle id="Oval" stroke-width="1.0008" cx="1258" cy="1255" r="587"></circle>
            <circle id="Oval" stroke-width="1.0008" cx="1257.5" cy="1254.5" r="596.5"></circle>
            <circle id="Oval" stroke-width="1.0008" cx="1258.5" cy="1255.5" r="606.5"></circle>
            <circle id="Oval" stroke-width="1.0008" cx="1258" cy="1255" r="616"></circle>
            <circle id="Oval" stroke-width="1.0008" cx="1258.5" cy="1255.5" r="625.5"></circle>
            <circle id="Oval" stroke-width="1.0008" cx="1258" cy="1255" r="635"></circle>
            <circle id="Oval" stroke-width="1.0008" cx="1257.5" cy="1254.5" r="644.5"></circle>
            <circle id="Oval" stroke-width="1.0008" cx="1258.5" cy="1255.5" r="654.5"></circle>
            <circle id="Oval" stroke-width="1.0008" cx="1258" cy="1255" r="664"></circle>
            <circle id="Oval" stroke-width="1.0008" cx="1257.5" cy="1254.5" r="673.5"></circle>
            <circle id="Oval" stroke-width="1.0008" cx="1258" cy="1255" r="683"></circle>
            <circle id="Oval" stroke-width="1.0008" cx="1258" cy="1255" r="693"></circle>
            <circle id="Oval" stroke-width="1.0008" cx="1258.5" cy="1255.5" r="702.5"></circle>
            <circle id="Oval" stroke-width="1.0008" cx="1258" cy="1255" r="712"></circle>
            <circle id="Oval" stroke-width="1.0008" cx="1257.5" cy="1254.5" r="721.5"></circle>
            <circle id="Oval" stroke-width="1.0008" cx="1258.5" cy="1255.5" r="731.5"></circle>
            <circle id="Oval" stroke-width="1.0008" cx="1258" cy="1255" r="741"></circle>
            <circle id="Oval" stroke-width="1.0008" cx="1257.5" cy="1254.5" r="750.5"></circle>
            <circle id="Oval" stroke-width="1.0008" cx="1258" cy="1255" r="760"></circle>
            <circle id="Oval" stroke-width="1.0008" cx="1258" cy="1255" r="770"></circle>
            <circle id="Oval" stroke-width="1.0008" cx="1258.5" cy="1255.5" r="779.5"></circle>
            <circle id="Oval" stroke-width="1.0008" cx="1258" cy="1255" r="789"></circle>
            <circle id="Oval" stroke-width="1.0008" cx="1257.5" cy="1254.5" r="798.5"></circle>
            <circle id="Oval" stroke-width="1.0008" cx="1258.5" cy="1255.5" r="808.5"></circle>
            <circle id="Oval" stroke-width="1.0008" cx="1258" cy="1255" r="818"></circle>
            <circle id="Oval" stroke-width="1.0008" cx="1257.5" cy="1254.5" r="827.5"></circle>
            <circle id="Oval" stroke-width="1.0008" cx="1258" cy="1255" r="837"></circle>
            <circle id="Oval" stroke-width="1.0008" cx="1258" cy="1255" r="847"></circle>
            <circle id="Oval" stroke-width="1.0008" cx="1258.5" cy="1255.5" r="856.5"></circle>
            <circle id="Oval" stroke-width="1.0008" cx="1258" cy="1255" r="866"></circle>
            <circle id="Oval" stroke-width="1.0008" cx="1257.5" cy="1254.5" r="875.5"></circle>
            <circle id="Oval" stroke-width="1.0008" cx="1258.5" cy="1255.5" r="885.5"></circle>
            <circle id="Oval" stroke-width="1.0008" cx="1258" cy="1255" r="895"></circle>
            <circle id="Oval" stroke-width="1.0008" cx="1257.5" cy="1254.5" r="904.5"></circle>
            <circle id="Oval" stroke-width="1.0008" cx="1258" cy="1255" r="914"></circle>
            <circle id="Oval" stroke-width="1.0008" cx="1258" cy="1255" r="924"></circle>
            <circle id="Oval" stroke-width="1.0008" cx="1258.5" cy="1255.5" r="933.5"></circle>
            <circle id="Oval" stroke-width="1.0008" cx="1258" cy="1255" r="943"></circle>
            <circle id="Oval" stroke-width="1.0008" cx="1257.5" cy="1254.5" r="952.5"></circle>
            <circle id="Oval" stroke-width="1.0008" cx="1258.5" cy="1255.5" r="962.5"></circle>
            <circle id="Oval" stroke-width="1.0008" cx="1258" cy="1255" r="972"></circle>
            <circle id="Oval" stroke-width="1.0008" cx="1257.5" cy="1254.5" r="981.5"></circle>
            <circle id="Oval" stroke-width="1.0008" cx="1258" cy="1255" r="991"></circle>
            <circle id="Oval" stroke-width="1.0008" cx="1258" cy="1255" r="1001"></circle>
            <circle id="Oval" stroke-width="1.0008" cx="1258.5" cy="1255.5" r="1010.5"></circle>
            <circle id="Oval" stroke-width="1.0008" cx="1258" cy="1255" r="1020"></circle>
            <circle id="Oval" stroke-width="1.0008" cx="1257.5" cy="1254.5" r="1029.5"></circle>
            <circle id="Oval" stroke-width="1.0008" cx="1258.5" cy="1255.5" r="1039.5"></circle>
            <circle id="Oval" stroke-width="1.0008" cx="1258" cy="1255" r="1049"></circle>
            <circle id="Oval" stroke-width="1.0008" cx="1257.5" cy="1254.5" r="1058.5"></circle>
            <circle id="Oval" stroke-width="1.0008" cx="1258" cy="1255" r="1068"></circle>
            <circle id="Oval" stroke-width="1.0008" cx="1258" cy="1255" r="1078"></circle>
            <circle id="Oval" stroke-width="1.0008" cx="1258.5" cy="1255.5" r="1087.5"></circle>
            <circle id="Oval" stroke-width="1.0008" cx="1258" cy="1255" r="1097"></circle>
            <circle id="Oval" stroke-width="1.0008" cx="1257.5" cy="1254.5" r="1106.5"></circle>
            <circle id="Oval" stroke-width="1.0008" cx="1258.5" cy="1255.5" r="1116.5"></circle>
            <circle id="Oval" stroke-width="1.0008" cx="1258" cy="1255" r="1126"></circle>
            <circle id="Oval" stroke-width="1.0008" cx="1257.5" cy="1254.5" r="1135.5"></circle>
            <circle id="Oval" stroke-width="1.0008" cx="1258" cy="1255" r="1145"></circle>
            <circle id="Oval" stroke-width="1.0008" cx="1258" cy="1255" r="1155"></circle>
            <circle id="Oval" stroke-width="1.0008" cx="1258.5" cy="1255.5" r="1164.5"></circle>
            <circle id="Oval" stroke-width="1.0008" cx="1258" cy="1255" r="1174"></circle>
            <circle id="Oval" stroke-width="1.0008" cx="1257.5" cy="1254.5" r="1183.5"></circle>
            <circle id="Oval" stroke-width="1.0008" cx="1258.5" cy="1255.5" r="1193.5"></circle>
            <circle id="Oval" stroke-width="1.0008" cx="1258" cy="1255" r="1203"></circle>
            <circle id="Oval" stroke-width="1.0008" cx="1257.5" cy="1254.5" r="1212.5"></circle>
            <circle id="Oval" stroke-width="1.0008" cx="1258" cy="1255" r="1222"></circle>
            <circle id="Oval" stroke-width="1.0008" cx="1258" cy="1255" r="1232"></circle>
            <circle id="Oval" stroke-width="1.0008" cx="1258.5" cy="1255.5" r="1241.5"></circle>
            <circle id="Oval" stroke-width="1.0008" cx="1258" cy="1255" r="1251"></circle>
            <circle id="Oval" stroke-width="1.004" fill="#000000" cx="1255" cy="1255" r="1"></circle>
            <circle id="Oval" stroke-width="1.004" cx="1254.5" cy="1254.5" r="9.5"></circle>
            <circle id="Oval" stroke-width="1.004" cx="1255" cy="1255" r="19"></circle>
            <circle id="Oval" stroke-width="1.004" cx="1255" cy="1255" r="29"></circle>
            <circle id="Oval" stroke-width="1.004" cx="1255.5" cy="1255.5" r="38.5"></circle>
            <circle id="Oval" stroke-width="1.004" cx="1255" cy="1255" r="48"></circle>
            <circle id="Oval" stroke-width="1.004" cx="1254.5" cy="1254.5" r="57.5"></circle>
            <circle id="Oval" stroke-width="1.004" cx="1255.5" cy="1255.5" r="67.5"></circle>
            <circle id="Oval" stroke-width="1.004" cx="1255" cy="1255" r="77"></circle>
            <circle id="Oval" stroke-width="1.004" cx="1255" cy="1255" r="87"></circle>
            <circle id="Oval" stroke-width="1.004" cx="1255.5" cy="1255.5" r="96.5"></circle>
            <circle id="Oval" stroke-width="1.004" cx="1255.5" cy="1255.5" r="106.5"></circle>
            <circle id="Oval" stroke-width="1.004" cx="1256" cy="1256" r="116"></circle>
            <circle id="Oval" stroke-width="1.004" cx="1255.5" cy="1255.5" r="125.5"></circle>
            <circle id="Oval" stroke-width="1.004" cx="1255" cy="1255" r="135"></circle>
            <circle id="Oval" stroke-width="1.004" cx="1256" cy="1256" r="145"></circle>
            <circle id="Oval" stroke-width="1.004" cx="1255.5" cy="1255.5" r="154.5"></circle>
            <circle id="Oval" stroke-width="1.004" cx="1254" cy="1254" r="164"></circle>
            <circle id="Oval" stroke-width="1.004" cx="1254.5" cy="1254.5" r="173.5"></circle>
            <circle id="Oval" stroke-width="1.004" cx="1254.5" cy="1254.5" r="183.5"></circle>
            <circle id="Oval" stroke-width="1.004" cx="1255" cy="1255" r="193"></circle>
            <circle id="Oval" stroke-width="1.004" cx="1254.5" cy="1254.5" r="202.5"></circle>
            <circle id="Oval" stroke-width="1.004" cx="1254" cy="1254" r="212"></circle>
            <circle id="Oval" stroke-width="1.004" cx="1255" cy="1255" r="222"></circle>
            <circle id="Oval" stroke-width="1.004" cx="1254.5" cy="1254.5" r="231.5"></circle>
            <circle id="Oval" stroke-width="1.004" cx="1254.5" cy="1254.5" r="241.5"></circle>
            <circle id="Oval" stroke-width="1.004" cx="1255" cy="1255" r="251"></circle>
            <circle id="Oval" stroke-width="1.004" cx="1255" cy="1255" r="261"></circle>
            <circle id="Oval" stroke-width="1.004" cx="1255.5" cy="1255.5" r="270.5"></circle>
            <circle id="Oval" stroke-width="1.004" cx="1255" cy="1255" r="280"></circle>
            <circle id="Oval" stroke-width="1.004" cx="1254.5" cy="1254.5" r="289.5"></circle>
            <circle id="Oval" stroke-width="1.004" cx="1255.5" cy="1255.5" r="299.5"></circle>
            <circle id="Oval" stroke-width="1.004" cx="1255" cy="1255" r="309"></circle>
            <circle id="Oval" stroke-width="1.004" cx="1254.5" cy="1254.5" r="318.5"></circle>
            <circle id="Oval" stroke-width="1.004" cx="1255" cy="1255" r="328"></circle>
            <circle id="Oval" stroke-width="1.004" cx="1255" cy="1255" r="338"></circle>
            <circle id="Oval" stroke-width="1.004" cx="1255.5" cy="1255.5" r="347.5"></circle>
            <circle id="Oval" stroke-width="1.004" cx="1255" cy="1255" r="357"></circle>
            <circle id="Oval" stroke-width="1.004" cx="1254.5" cy="1254.5" r="366.5"></circle>
            <circle id="Oval" stroke-width="1.004" cx="1255.5" cy="1255.5" r="376.5"></circle>
            <circle id="Oval" stroke-width="1.004" cx="1255" cy="1255" r="386"></circle>
            <circle id="Oval" stroke-width="1.004" cx="1255" cy="1255" r="396"></circle>
            <circle id="Oval" stroke-width="1.004" cx="1255.5" cy="1255.5" r="405.5"></circle>
            <circle id="Oval" stroke-width="1.004" cx="1255.5" cy="1255.5" r="415.5"></circle>
            <circle id="Oval" stroke-width="1.004" cx="1256" cy="1256" r="425"></circle>
            <circle id="Oval" stroke-width="1.004" cx="1255.5" cy="1255.5" r="434.5"></circle>
            <circle id="Oval" stroke-width="1.004" cx="1255" cy="1255" r="444"></circle>
            <circle id="Oval" stroke-width="1.004" cx="1256" cy="1256" r="454"></circle>
            <circle id="Oval" stroke-width="1.004" cx="1255.5" cy="1255.5" r="463.5"></circle>
            <circle id="Oval" stroke-width="1.004" cx="1254" cy="1254" r="473"></circle>
            <circle id="Oval" stroke-width="1.004" cx="1254.5" cy="1254.5" r="482.5"></circle>
            <circle id="Oval" stroke-width="1.004" cx="1254.5" cy="1254.5" r="492.5"></circle>
            <circle id="Oval" stroke-width="1.004" cx="1255" cy="1255" r="502"></circle>
            <circle id="Oval" stroke-width="1.004" cx="1254.5" cy="1254.5" r="511.5"></circle>
            <circle id="Oval" stroke-width="1.004" cx="1254" cy="1254" r="521"></circle>
            <circle id="Oval" stroke-width="1.004" cx="1255" cy="1255" r="531"></circle>
            <circle id="Oval" stroke-width="1.004" cx="1254.5" cy="1254.5" r="540.5"></circle>
            <circle id="Oval" stroke-width="1.004" cx="1254.5" cy="1254.5" r="550.5"></circle>
            <circle id="Oval" stroke-width="1.004" cx="1255" cy="1255" r="560"></circle>
            <circle id="Oval" stroke-width="1.004" cx="1255" cy="1255" r="570"></circle>
            <circle id="Oval" stroke-width="1.004" cx="1255.5" cy="1255.5" r="579.5"></circle>
            <circle id="Oval" stroke-width="1.004" cx="1255" cy="1255" r="589"></circle>
            <circle id="Oval" stroke-width="1.004" cx="1254.5" cy="1254.5" r="598.5"></circle>
            <circle id="Oval" stroke-width="1.004" cx="1255.5" cy="1255.5" r="608.5"></circle>
            <circle id="Oval" stroke-width="1.004" cx="1255" cy="1255" r="618"></circle>
            <circle id="Oval" stroke-width="1.004" cx="1255.5" cy="1255.5" r="627.5"></circle>
            <circle id="Oval" stroke-width="1.004" cx="1255" cy="1255" r="637"></circle>
            <circle id="Oval" stroke-width="1.004" cx="1254.5" cy="1254.5" r="646.5"></circle>
            <circle id="Oval" stroke-width="1.004" cx="1255.5" cy="1255.5" r="656.5"></circle>
            <circle id="Oval" stroke-width="1.004" cx="1255" cy="1255" r="666"></circle>
            <circle id="Oval" stroke-width="1.004" cx="1254.5" cy="1254.5" r="675.5"></circle>
            <circle id="Oval" stroke-width="1.004" cx="1255" cy="1255" r="685"></circle>
            <circle id="Oval" stroke-width="1.004" cx="1255" cy="1255" r="695"></circle>
            <circle id="Oval" stroke-width="1.004" cx="1255.5" cy="1255.5" r="704.5"></circle>
            <circle id="Oval" stroke-width="1.004" cx="1255.5" cy="1255.5" r="714.5"></circle>
            <circle id="Oval" stroke-width="1.004" cx="1255" cy="1255" r="724"></circle>
            <circle id="Oval" stroke-width="1.004" cx="1256" cy="1256" r="734"></circle>
            <circle id="Oval" stroke-width="1.004" cx="1255.5" cy="1255.5" r="743.5"></circle>
            <circle id="Oval" stroke-width="1.004" cx="1255" cy="1255" r="753"></circle>
            <circle id="Oval" stroke-width="1.004" cx="1255.5" cy="1255.5" r="762.5"></circle>
            <circle id="Oval" stroke-width="1.004" cx="1255.5" cy="1255.5" r="772.5"></circle>
            <circle id="Oval" stroke-width="1.004" cx="1256" cy="1256" r="782"></circle>
            <circle id="Oval" stroke-width="1.004" cx="1254.5" cy="1254.5" r="791.5"></circle>
            <circle id="Oval" stroke-width="1.004" cx="1254" cy="1254" r="801"></circle>
            <circle id="Oval" stroke-width="1.004" cx="1255" cy="1255" r="811"></circle>
            <circle id="Oval" stroke-width="1.004" cx="1254.5" cy="1254.5" r="820.5"></circle>
            <circle id="Oval" stroke-width="1.004" cx="1254" cy="1254" r="830"></circle>
            <circle id="Oval" stroke-width="1.004" cx="1254.5" cy="1254.5" r="839.5"></circle>
            <circle id="Oval" stroke-width="1.004" cx="1254.5" cy="1254.5" r="849.5"></circle>
            <circle id="Oval" stroke-width="1.004" cx="1255" cy="1255" r="859"></circle>
            <circle id="Oval" stroke-width="1.004" cx="1255" cy="1255" r="869"></circle>
            <circle id="Oval" stroke-width="1.004" cx="1254.5" cy="1254.5" r="878.5"></circle>
            <circle id="Oval" stroke-width="1.004" cx="1255.5" cy="1255.5" r="888.5"></circle>
            <circle id="Oval" stroke-width="1.004" cx="1255" cy="1255" r="898"></circle>
            <circle id="Oval" stroke-width="1.004" cx="1254.5" cy="1254.5" r="907.5"></circle>
            <circle id="Oval" stroke-width="1.004" cx="1255" cy="1255" r="917"></circle>
            <circle id="Oval" stroke-width="1.004" cx="1255" cy="1255" r="927"></circle>
            <circle id="Oval" stroke-width="1.004" cx="1255.5" cy="1255.5" r="936.5"></circle>
            <circle id="Oval" stroke-width="1.004" cx="1255" cy="1255" r="946"></circle>
            <circle id="Oval" stroke-width="1.004" cx="1254.5" cy="1254.5" r="955.5"></circle>
            <circle id="Oval" stroke-width="1.004" cx="1255.5" cy="1255.5" r="965.5"></circle>
            <circle id="Oval" stroke-width="1.004" cx="1255" cy="1255" r="975"></circle>
            <circle id="Oval" stroke-width="1.004" cx="1254.5" cy="1254.5" r="984.5"></circle>
            <circle id="Oval" stroke-width="1.004" cx="1255" cy="1255" r="994"></circle>
            <circle id="Oval" stroke-width="1.004" cx="1255" cy="1255" r="1004"></circle>
            <circle id="Oval" stroke-width="1.004" cx="1255.5" cy="1255.5" r="1013.5"></circle>
            <circle id="Oval" stroke-width="1.004" cx="1255.5" cy="1255.5" r="1023.5"></circle>
            <circle id="Oval" stroke-width="1.004" cx="1255" cy="1255" r="1033"></circle>
            <circle id="Oval" stroke-width="1.004" cx="1256" cy="1256" r="1043"></circle>
            <circle id="Oval" stroke-width="1.004" cx="1255.5" cy="1255.5" r="1052.5"></circle>
            <circle id="Oval" stroke-width="1.004" cx="1255" cy="1255" r="1062"></circle>
            <circle id="Oval" stroke-width="1.004" cx="1255.5" cy="1255.5" r="1071.5"></circle>
            <circle id="Oval" stroke-width="1.004" cx="1255.5" cy="1255.5" r="1081.5"></circle>
            <circle id="Oval" stroke-width="1.004" cx="1256" cy="1256" r="1091"></circle>
            <circle id="Oval" stroke-width="1.004" cx="1254.5" cy="1254.5" r="1100.5"></circle>
            <circle id="Oval" stroke-width="1.004" cx="1254" cy="1254" r="1110"></circle>
            <circle id="Oval" stroke-width="1.004" cx="1255" cy="1255" r="1120"></circle>
            <circle id="Oval" stroke-width="1.004" cx="1254.5" cy="1254.5" r="1129.5"></circle>
            <circle id="Oval" stroke-width="1.004" cx="1254" cy="1254" r="1139"></circle>
            <circle id="Oval" stroke-width="1.004" cx="1254.5" cy="1254.5" r="1148.5"></circle>
            <circle id="Oval" stroke-width="1.004" cx="1254.5" cy="1254.5" r="1158.5"></circle>
            <circle id="Oval" stroke-width="1.004" cx="1255" cy="1255" r="1168"></circle>
            <circle id="Oval" stroke-width="1.004" cx="1255" cy="1255" r="1178"></circle>
            <circle id="Oval" stroke-width="1.004" cx="1254.5" cy="1254.5" r="1187.5"></circle>
            <circle id="Oval" stroke-width="1.004" cx="1255.5" cy="1255.5" r="1197.5"></circle>
            <circle id="Oval" stroke-width="1.004" cx="1255" cy="1255" r="1207"></circle>
            <circle id="Oval" stroke-width="1.004" cx="1254.5" cy="1254.5" r="1216.5"></circle>
            <circle id="Oval" stroke-width="1.004" cx="1255" cy="1255" r="1226"></circle>
            <circle id="Oval" stroke-width="1.004" cx="1255" cy="1255" r="1236"></circle>
            <circle id="Oval" stroke-width="1.004" cx="1255.5" cy="1255.5" r="1245.5"></circle>
            <circle id="Oval" stroke-width="1.004" cx="1255" cy="1255" r="1255"></circle>
        </g>
    </g>
</svg>